<svg xmlns="http://www.w3.org/2000/svg" viewBox="0 0 474.294 474.294" xmlns:v="https://vecta.io/nano"><circle cx="237.111" cy="236.966" r="236.966" fill="#3a5a98"/><path d="M404.742 69.754c92.54 92.54 92.545 242.586-.004 335.134-92.545 92.54-242.593 92.54-335.134 0L404.742 69.754z" fill="#345387"/><path d="M472.543 263.656L301.13 92.238l-88.998 88.998 5.302 5.302-50.67 50.667 41.474 41.474-5.455 5.452 44.9 44.9-51.764 51.764 88.43 88.43c99.718-20.18 176.7-102.97 188.196-205.57z" fill="#2e4d72"/><path d="M195.682 148.937v39.74h-29.115v48.598h29.115v144.402H255.5V237.276h40.134s3.76-23.307 5.58-48.78h-45.485v-33.23c0-4.962 6.518-11.64 12.965-11.64h32.587V93.03h-44.306c-62.763-.003-61.282 48.64-61.282 55.906z" fill="#fff"/></svg>