<svg xmlns="http://www.w3.org/2000/svg" viewBox="0 0 108 108" xmlns:v="https://vecta.io/nano"><defs><linearGradient id="A" x1="30.062" y1="83.889" x2="78.975" y2="22.827" gradientUnits="userSpaceOnUse"><stop offset="0" stop-color="#fec053"/><stop offset=".33" stop-color="#f2203e"/><stop offset=".65" stop-color="#b729a8"/><stop offset="1" stop-color="#5342d6"/></linearGradient></defs><circle cx="54" cy="54" r="54" fill="url(#A)"/><path d="M78.7 55a24.71 24.71 0 0 0-42.176-17.5A24.71 24.71 0 0 0 54 79.69c13.64 0 24.7-11.05 24.7-24.7zm-.47-28.1a4 4 0 1 0 0 8 4 4 0 1 0 0-8zM33.8 21.2h40.4c7.493.016 13.564 6.087 13.58 13.58v40.4c-.006 7.5-6.08 13.58-13.58 13.6H33.8c-7.497-.017-13.57-6.093-13.58-13.6v-40.4c.027-7.49 6.09-13.553 13.58-13.58zm40.4-4.53H33.8c-9.988.033-18.077 8.122-18.1 18.1v40.4c.022 9.994 8.116 18.093 18.1 18.12h40.4c9.997-.022 18.094-8.123 18.1-18.12v-40.4c-.027-10-8.12-18.083-18.1-18.1zM34.42 55a19.58 19.58 0 0 1 33.418-13.872A19.58 19.58 0 0 1 54 74.56C43.196 74.554 34.437 65.804 34.42 55z" fill="#fff" fill-rule="evenodd"/></svg>